<?xml version="1.0" encoding="UTF-8" standalone="no"?>
<!DOCTYPE svg PUBLIC "-//W3C//DTD SVG 1.1//EN"
 "http://www.w3.org/Graphics/SVG/1.1/DTD/svg11.dtd">
<!-- Generated by graphviz version 2.50.0 (0)
 -->
<!-- Pages: 1 -->
<svg width="581pt" height="471pt"
 viewBox="0.00 0.00 581.00 470.86" xmlns="http://www.w3.org/2000/svg" xmlns:xlink="http://www.w3.org/1999/xlink">
<g id="graph0" class="graph" transform="scale(1 1) rotate(0) translate(4 466.86)">
<polygon fill="white" stroke="transparent" points="-4,4 -4,-466.86 577,-466.86 577,4 -4,4"/>
<g id="clust1" class="cluster">
<title>cluster186 x 4</title>
<path fill="none" stroke="black" d="M20,-229.93C20,-229.93 100,-229.93 100,-229.93 106,-229.93 112,-235.93 112,-241.93 112,-241.93 112,-309.93 112,-309.93 112,-315.93 106,-321.93 100,-321.93 100,-321.93 20,-321.93 20,-321.93 14,-321.93 8,-315.93 8,-309.93 8,-309.93 8,-241.93 8,-241.93 8,-235.93 14,-229.93 20,-229.93"/>
<text text-anchor="middle" x="83" y="-237.73" font-family="Times,serif" font-size="14.00">186 x 4</text>
</g>
<g id="clust2" class="cluster">
<title>cluster186</title>
<path fill="none" stroke="black" d="M244,-8C244,-8 348,-8 348,-8 354,-8 360,-14 360,-20 360,-20 360,-198.95 360,-198.95 360,-204.95 354,-210.95 348,-210.95 348,-210.95 244,-210.95 244,-210.95 238,-210.95 232,-204.95 232,-198.95 232,-198.95 232,-20 232,-20 232,-14 238,-8 244,-8"/>
<text text-anchor="middle" x="341.5" y="-15.8" font-family="Times,serif" font-size="14.00">186</text>
</g>
<g id="clust3" class="cluster">
<title>clusterKt (3)</title>
<path fill="none" stroke="black" d="M136,-340.91C136,-340.91 212,-340.91 212,-340.91 218,-340.91 224,-346.91 224,-352.91 224,-352.91 224,-442.86 224,-442.86 224,-448.86 218,-454.86 212,-454.86 212,-454.86 136,-454.86 136,-454.86 130,-454.86 124,-448.86 124,-442.86 124,-442.86 124,-352.91 124,-352.91 124,-346.91 130,-340.91 136,-340.91"/>
<text text-anchor="middle" x="199" y="-348.71" font-family="Times,serif" font-size="14.00">Kt (3)</text>
</g>
<g id="clust4" class="cluster">
<title>clusterKc (5)</title>
<path fill="none" stroke="black" d="M132,-229.93C132,-229.93 216,-229.93 216,-229.93 222,-229.93 228,-235.93 228,-241.93 228,-241.93 228,-309.93 228,-309.93 228,-315.93 222,-321.93 216,-321.93 216,-321.93 132,-321.93 132,-321.93 126,-321.93 120,-315.93 120,-309.93 120,-309.93 120,-241.93 120,-241.93 120,-235.93 126,-229.93 132,-229.93"/>
<text text-anchor="middle" x="202" y="-237.73" font-family="Times,serif" font-size="14.00">Kc (5)</text>
</g>
<g id="clust5" class="cluster">
<title>clustercoefs (4)</title>
<path fill="none" stroke="black" d="M477,-218.95C477,-218.95 553,-218.95 553,-218.95 559,-218.95 565,-224.95 565,-230.95 565,-230.95 565,-320.91 565,-320.91 565,-326.91 559,-332.91 553,-332.91 553,-332.91 477,-332.91 477,-332.91 471,-332.91 465,-326.91 465,-320.91 465,-320.91 465,-230.95 465,-230.95 465,-224.95 471,-218.95 477,-218.95"/>
<text text-anchor="middle" x="532.5" y="-226.75" font-family="Times,serif" font-size="14.00">coefs (4)</text>
</g>
<!-- Xdata -->
<g id="node1" class="node">
<title>Xdata</title>
<path fill="lightgrey" stroke="black" d="M92,-313.93C92,-313.93 28,-313.93 28,-313.93 22,-313.93 16,-307.93 16,-301.93 16,-301.93 16,-272.93 16,-272.93 16,-266.93 22,-260.93 28,-260.93 28,-260.93 92,-260.93 92,-260.93 98,-260.93 104,-266.93 104,-272.93 104,-272.93 104,-301.93 104,-301.93 104,-307.93 98,-313.93 92,-313.93"/>
<text text-anchor="middle" x="60" y="-298.73" font-family="Times,serif" font-size="14.00">Xdata</text>
<text text-anchor="middle" x="60" y="-283.73" font-family="Times,serif" font-size="14.00">~</text>
<text text-anchor="middle" x="60" y="-268.73" font-family="Times,serif" font-size="14.00">MutableData</text>
</g>
<!-- y -->
<g id="node2" class="node">
<title>y</title>
<ellipse fill="lightgrey" stroke="black" cx="296" cy="-165.48" rx="55.72" ry="37.45"/>
<text text-anchor="middle" x="296" y="-176.78" font-family="Times,serif" font-size="14.00">y</text>
<text text-anchor="middle" x="296" y="-161.78" font-family="Times,serif" font-size="14.00">~</text>
<text text-anchor="middle" x="296" y="-146.78" font-family="Times,serif" font-size="14.00">Categorical</text>
</g>
<!-- Xdata&#45;&gt;y -->
<g id="edge5" class="edge">
<title>Xdata&#45;&gt;y</title>
<path fill="none" stroke="black" d="M75.78,-260.71C85.71,-246.52 99.71,-229.65 116,-218.95 150.57,-196.26 195.17,-183.16 231.32,-175.73"/>
<polygon fill="black" stroke="black" points="232.13,-179.14 241.28,-173.78 230.79,-172.27 232.13,-179.14"/>
</g>
<!-- ydata -->
<g id="node3" class="node">
<title>ydata</title>
<path fill="lightgrey" stroke="black" d="M328,-92C328,-92 264,-92 264,-92 258,-92 252,-86 252,-80 252,-80 252,-51 252,-51 252,-45 258,-39 264,-39 264,-39 328,-39 328,-39 334,-39 340,-45 340,-51 340,-51 340,-80 340,-80 340,-86 334,-92 328,-92"/>
<text text-anchor="middle" x="296" y="-76.8" font-family="Times,serif" font-size="14.00">ydata</text>
<text text-anchor="middle" x="296" y="-61.8" font-family="Times,serif" font-size="14.00">~</text>
<text text-anchor="middle" x="296" y="-46.8" font-family="Times,serif" font-size="14.00">MutableData</text>
</g>
<!-- y&#45;&gt;ydata -->
<g id="edge1" class="edge">
<title>y&#45;&gt;ydata</title>
<path fill="none" stroke="black" d="M296,-127.99C296,-119.58 296,-110.63 296,-102.25"/>
<polygon fill="black" stroke="black" points="299.5,-102.01 296,-92.01 292.5,-102.01 299.5,-102.01"/>
</g>
<!-- cut_raw -->
<g id="node4" class="node">
<title>cut_raw</title>
<ellipse fill="none" stroke="black" cx="174" cy="-409.38" rx="42.35" ry="37.45"/>
<text text-anchor="middle" x="174" y="-420.68" font-family="Times,serif" font-size="14.00">cut_raw</text>
<text text-anchor="middle" x="174" y="-405.68" font-family="Times,serif" font-size="14.00">~</text>
<text text-anchor="middle" x="174" y="-390.68" font-family="Times,serif" font-size="14.00">Normal</text>
</g>
<!-- cutpoints -->
<g id="node5" class="node">
<title>cutpoints</title>
<polygon fill="none" stroke="black" points="219.5,-313.93 128.5,-313.93 128.5,-260.93 219.5,-260.93 219.5,-313.93"/>
<text text-anchor="middle" x="174" y="-298.73" font-family="Times,serif" font-size="14.00">cutpoints</text>
<text text-anchor="middle" x="174" y="-283.73" font-family="Times,serif" font-size="14.00">~</text>
<text text-anchor="middle" x="174" y="-268.73" font-family="Times,serif" font-size="14.00">Deterministic</text>
</g>
<!-- cut_raw&#45;&gt;cutpoints -->
<g id="edge2" class="edge">
<title>cut_raw&#45;&gt;cutpoints</title>
<path fill="none" stroke="black" d="M174,-371.74C174,-356.77 174,-339.51 174,-324.59"/>
<polygon fill="black" stroke="black" points="177.5,-324.2 174,-314.2 170.5,-324.2 177.5,-324.2"/>
</g>
<!-- cutpoints&#45;&gt;y -->
<g id="edge7" class="edge">
<title>cutpoints&#45;&gt;y</title>
<path fill="none" stroke="black" d="M192.16,-260.87C202.07,-247.71 214.94,-231.78 228,-218.95 234.72,-212.35 242.26,-205.82 249.81,-199.71"/>
<polygon fill="black" stroke="black" points="252.29,-202.22 257.97,-193.28 247.95,-196.72 252.29,-202.22"/>
</g>
<!-- σ -->
<g id="node6" class="node">
<title>σ</title>
<ellipse fill="none" stroke="black" cx="296" cy="-287.43" rx="58.88" ry="37.45"/>
<text text-anchor="middle" x="296" y="-298.73" font-family="Times,serif" font-size="14.00">σ</text>
<text text-anchor="middle" x="296" y="-283.73" font-family="Times,serif" font-size="14.00">~</text>
<text text-anchor="middle" x="296" y="-268.73" font-family="Times,serif" font-size="14.00">HalfNormal</text>
</g>
<!-- σ&#45;&gt;y -->
<g id="edge6" class="edge">
<title>σ&#45;&gt;y</title>
<path fill="none" stroke="black" d="M296,-249.79C296,-238.38 296,-225.65 296,-213.63"/>
<polygon fill="black" stroke="black" points="299.5,-213.31 296,-203.31 292.5,-213.31 299.5,-213.31"/>
</g>
<!-- λ -->
<g id="node7" class="node">
<title>λ</title>
<ellipse fill="none" stroke="black" cx="515" cy="-409.38" rx="43.27" ry="37.45"/>
<text text-anchor="middle" x="515" y="-420.68" font-family="Times,serif" font-size="14.00">λ</text>
<text text-anchor="middle" x="515" y="-405.68" font-family="Times,serif" font-size="14.00">~</text>
<text text-anchor="middle" x="515" y="-390.68" font-family="Times,serif" font-size="14.00">Gamma</text>
</g>
<!-- β -->
<g id="node9" class="node">
<title>β</title>
<ellipse fill="none" stroke="black" cx="515" cy="-287.43" rx="41.94" ry="37.45"/>
<text text-anchor="middle" x="515" y="-298.73" font-family="Times,serif" font-size="14.00">β</text>
<text text-anchor="middle" x="515" y="-283.73" font-family="Times,serif" font-size="14.00">~</text>
<text text-anchor="middle" x="515" y="-268.73" font-family="Times,serif" font-size="14.00">Normal</text>
</g>
<!-- λ&#45;&gt;β -->
<g id="edge3" class="edge">
<title>λ&#45;&gt;β</title>
<path fill="none" stroke="black" d="M515,-371.74C515,-360.34 515,-347.6 515,-335.58"/>
<polygon fill="black" stroke="black" points="518.5,-335.26 515,-325.26 511.5,-335.26 518.5,-335.26"/>
</g>
<!-- β0 -->
<g id="node8" class="node">
<title>β0</title>
<ellipse fill="none" stroke="black" cx="414" cy="-287.43" rx="41.94" ry="37.45"/>
<text text-anchor="middle" x="414" y="-298.73" font-family="Times,serif" font-size="14.00">β0</text>
<text text-anchor="middle" x="414" y="-283.73" font-family="Times,serif" font-size="14.00">~</text>
<text text-anchor="middle" x="414" y="-268.73" font-family="Times,serif" font-size="14.00">Normal</text>
</g>
<!-- β0&#45;&gt;y -->
<g id="edge8" class="edge">
<title>β0&#45;&gt;y</title>
<path fill="none" stroke="black" d="M393.28,-254.76C384.86,-242.95 374.62,-229.78 364,-218.95 357.41,-212.23 349.93,-205.63 342.4,-199.5"/>
<polygon fill="black" stroke="black" points="344.27,-196.51 334.25,-193.05 339.92,-202 344.27,-196.51"/>
</g>
<!-- β&#45;&gt;y -->
<g id="edge4" class="edge">
<title>β&#45;&gt;y</title>
<path fill="none" stroke="black" d="M496.83,-253.64C488.55,-241.25 477.72,-227.98 465,-218.95 434.23,-197.12 394.1,-184.16 360.66,-176.58"/>
<polygon fill="black" stroke="black" points="361.03,-173.08 350.51,-174.4 359.55,-179.93 361.03,-173.08"/>
</g>
</g>
</svg>
